<svg width="68" height="51" viewBox="0 0 68 51" fill="none" xmlns="http://www.w3.org/2000/svg">
<path d="M42.1284 13.9007V34.6499H15.1528C18.4482 35.4856 21.0729 38.0361 21.9623 41.2781H45.6717C46.7653 37.3012 50.4544 34.3617 54.8142 34.3617C59.174 34.3617 62.8631 37.3012 63.9567 41.2781H67.5V29.088L58.722 13.9007H42.1284ZM47.3777 15.918H56.4327L64.4087 29.1744H47.3777V17.2148V15.918ZM0.5 34.6499L2.17686 41.2781H3.67145C4.56383 38.0361 7.18411 35.4856 10.4868 34.6499H0.5ZM12.8198 36.9554C9.01699 36.9554 5.96364 39.9669 5.96364 43.7277C5.96364 47.4885 9.01699 50.5 12.8198 50.5C16.6256 50.5 19.6731 47.4885 19.6731 43.7277C19.6731 39.9669 16.6256 36.9554 12.8198 36.9554ZM54.8142 36.9554C51.0085 36.9554 47.9609 39.9669 47.9609 43.7277C47.9609 47.4885 51.0085 50.5 54.8142 50.5C58.6199 50.5 61.6674 47.4885 61.6674 43.7277C61.6674 39.9669 58.6199 36.9554 54.8142 36.9554Z" fill="black"/>
<path d="M9.4324 0.5L6.53945 3.35878L25.8831 23.5605V32.0042H37.2566V24.67L9.4324 0.5ZM5.72873 6.28385V17.8544L6.31344 18.2435C7.85323 19.2521 8.46274 20.2752 8.63625 21.0965C8.80831 21.9322 8.57355 22.6527 8.07487 23.2435C7.07459 24.4394 5.17172 25.0158 3.30238 23.157L1.44763 25.0014C4.24434 27.7535 8.17402 27.1772 10.09 24.9149C11.0495 23.7766 11.5438 22.1916 11.2055 20.5778C10.9066 19.1368 9.934 17.7391 8.35338 16.5432V9.02159L5.72873 6.28385Z" fill="#F6B738"/>
</svg>
