<svg width="50" height="50" viewBox="0 0 50 50" fill="none" xmlns="http://www.w3.org/2000/svg">
<path d="M40.438 35.4654H39.3991L39.0309 35.1103C40.3643 33.564 41.0971 31.5896 41.0955 29.5477C41.0955 27.8572 40.5942 26.2045 39.6549 24.7989C38.7157 23.3932 37.3807 22.2976 35.8188 21.6507C34.2569 21.0037 32.5383 20.8344 30.8802 21.1642C29.2221 21.4941 27.699 22.3082 26.5036 23.5036C25.3082 24.699 24.4941 26.2221 24.1642 27.8802C23.8344 29.5383 24.0037 31.2569 24.6507 32.8188C25.2976 34.3807 26.3932 35.7157 27.7989 36.6549C29.2045 37.5942 30.8572 38.0955 32.5477 38.0955C34.665 38.0955 36.6112 37.3196 38.1103 36.0309L38.4654 36.3991V37.438L45.0406 44L47 42.0406L40.438 35.4654ZM32.5477 35.4654C29.2733 35.4654 26.6301 32.8222 26.6301 29.5477C26.6301 26.2733 29.2733 23.6301 32.5477 23.6301C35.8222 23.6301 38.4654 26.2733 38.4654 29.5477C38.4654 32.8222 35.8222 35.4654 32.5477 35.4654Z" fill="#F6B738" stroke="#F6B738"/>
<path d="M44.6533 30.0978C44.6775 29.7504 44.75 29.403 44.75 29.0556V30.2136L44.6533 30.0978ZM20.5833 29.0556C20.5833 30.6999 20.9458 32.2748 21.5983 33.6875H8.5V36.0035C8.5 37.2773 7.4125 38.3195 6.08333 38.3195H3.66667C2.3375 38.3195 1.25 37.2773 1.25 36.0035V17.4757L6.27667 3.57989C6.76 2.23662 8.11333 1.26392 9.70833 1.26392H36.2917C37.8867 1.26392 39.24 2.23662 39.7233 3.57989L44.75 17.4757V29.0556C44.75 22.6635 39.3367 17.4757 32.6667 17.4757C25.9967 17.4757 20.5833 22.6635 20.5833 29.0556ZM13.3333 23.2657C13.3333 21.3434 11.7142 19.7917 9.70833 19.7917C7.7025 19.7917 6.08333 21.3434 6.08333 23.2657C6.08333 25.1879 7.7025 26.7396 9.70833 26.7396C11.7142 26.7396 13.3333 25.1879 13.3333 23.2657ZM39.9167 15.1597L36.2917 4.73787H9.70833L6.08333 15.1597H39.9167Z" fill="#1F1E1E"/>
</svg>
