<svg width="50" height="50" viewBox="0 0 50 50" fill="none" xmlns="http://www.w3.org/2000/svg">
<path d="M49.2691 41.0754L39.3366 31.5568C40.3275 29.1482 39.7716 26.3227 37.6933 24.3541C35.5183 22.2466 32.2558 21.8297 29.6216 22.9877L34.31 27.4807L31.0475 30.6304L26.2383 26.1143C24.9333 28.6387 25.5375 31.7652 27.6641 33.8728C28.6239 34.8111 29.849 35.46 31.1886 35.7398C32.5282 36.0196 33.924 35.9181 35.2041 35.4476L45.1366 44.9431C45.5716 45.3831 46.2241 45.3831 46.6591 44.9431L49.1725 42.5577C49.7041 42.1408 49.7041 41.3997 49.2691 41.0754Z" fill="#F6B738"/>
<path d="M44.6533 30.0978C44.6775 29.7504 44.75 29.403 44.75 29.0556V30.2136L44.6533 30.0978ZM20.5833 29.0556C20.5833 30.6999 20.9458 32.2748 21.5983 33.6875H8.5V36.0035C8.5 37.2773 7.4125 38.3195 6.08333 38.3195H3.66667C2.3375 38.3195 1.25 37.2773 1.25 36.0035V17.4757L6.27667 3.57989C6.76 2.23662 8.11333 1.26392 9.70833 1.26392H36.2917C37.8867 1.26392 39.24 2.23662 39.7233 3.57989L44.75 17.4757V29.0556C44.75 22.6635 39.3367 17.4757 32.6667 17.4757C25.9967 17.4757 20.5833 22.6635 20.5833 29.0556ZM13.3333 23.2657C13.3333 21.3434 11.7142 19.7917 9.70833 19.7917C7.7025 19.7917 6.08333 21.3434 6.08333 23.2657C6.08333 25.1879 7.7025 26.7396 9.70833 26.7396C11.7142 26.7396 13.3333 25.1879 13.3333 23.2657ZM39.9167 15.1597L36.2917 4.73787H9.70833L6.08333 15.1597H39.9167Z" fill="#1F1E1E"/>
</svg>
