<svg width="18" height="15" viewBox="0 0 18 15" fill="none" xmlns="http://www.w3.org/2000/svg">
<path d="M16.7163 2.14295C16.9932 2.40479 17.1549 2.7659 17.1656 3.14688C17.1764 3.52787 17.0355 3.89754 16.7738 4.17462L8.62792 12.7996C8.4959 12.9392 8.33725 13.0508 8.16134 13.128C7.98544 13.2052 7.79585 13.2463 7.60378 13.249C7.4117 13.2517 7.22104 13.2159 7.04305 13.1436C6.86506 13.0714 6.70336 12.9642 6.5675 12.8284L2.255 8.51587C2.00108 8.24337 1.86284 7.88295 1.86941 7.51054C1.87598 7.13813 2.02685 6.7828 2.29022 6.51943C2.5536 6.25605 2.90892 6.10519 3.28133 6.09862C3.65374 6.09205 4.01416 6.23028 4.28667 6.4842L7.55458 9.7502L14.6846 2.20045C14.9464 1.92349 15.3075 1.76185 15.6885 1.75106C16.0695 1.74028 16.4392 1.88124 16.7163 2.14295Z" fill="white" fill-opacity="0.81"/>
</svg>
