<svg width="54" height="50" viewBox="0 0 54 50" fill="none" xmlns="http://www.w3.org/2000/svg">
<path d="M31.375 1.625C25.706 1.625 20.2692 3.877 16.2606 7.88559C12.252 11.8942 10 17.331 10 23H2.875L12.28 32.5713L21.875 23H14.75C14.75 18.5908 16.5016 14.3621 19.6194 11.2444C22.7371 8.12656 26.9658 6.375 31.375 6.375C35.7842 6.375 40.0129 8.12656 43.1306 11.2444C46.2484 14.3621 48 18.5908 48 23C48 27.4092 46.2484 31.6379 43.1306 34.7556C40.0129 37.8734 35.7842 39.625 31.375 39.625C26.7913 39.625 22.635 37.7488 19.6425 34.7325L16.27 38.105C18.2451 40.101 20.5981 41.6835 23.1915 42.7601C25.785 43.8366 28.567 44.3856 31.375 44.375C37.044 44.375 42.4808 42.123 46.4894 38.1144C50.498 34.1058 52.75 28.669 52.75 23C52.75 17.331 50.498 11.8942 46.4894 7.88559C42.4808 3.877 37.044 1.625 31.375 1.625Z" fill="#1F1E1E"/>
<path d="M31.8997 13.5H28.3372V25.375L38.5022 31.4075L40.2122 28.5337L31.8997 23.5938V13.5Z" fill="#F6B738"/>
</svg>
