<svg width="51" height="51" viewBox="0 0 51 51" fill="none" xmlns="http://www.w3.org/2000/svg">
<path d="M10.625 13V11.9584C10.625 9.99377 10.625 9.01252 11.2476 8.4021C11.8703 7.79169 12.8711 7.79169 14.875 7.79169C16.8789 7.79169 17.8797 7.79169 18.5024 8.4021C19.125 9.01252 19.125 9.99377 19.125 11.9584V13M31.875 10.9167H38.25" stroke="#1F1E1E" stroke-width="3" stroke-linecap="round" stroke-linejoin="round"/>
<path d="M34 4.66669H31.1674C27.1851 4.66669 25.5 6.61252 25.5 10.2229C25.5 12.0271 24.6564 13 22.6674 13H14.875C10.8672 13 8.8655 13 7.62025 14.2209C6.375 15.4417 6.375 17.4042 6.375 21.3334V31.75C6.375 38.625 6.375 42.0625 8.55313 44.1979C10.7313 46.3334 14.2375 46.3334 21.25 46.3334H29.75C36.7625 46.3334 40.2688 46.3334 42.4469 44.1979C44.625 42.0625 44.625 38.625 44.625 31.75V15.0834C44.625 10.1729 44.625 7.71669 43.0695 6.19169C41.5119 4.66669 39.0086 4.66669 34 4.66669Z" stroke="#1F1E1E" stroke-width="4" stroke-linecap="round" stroke-linejoin="round"/>
<path d="M19.125 30.8896C19.125 27.8396 21.811 24.825 23.6937 23.0834C24.1801 22.6275 24.8271 22.373 25.5 22.373C26.1729 22.373 26.8199 22.6275 27.3063 23.0834C29.189 24.825 31.875 27.8396 31.875 30.8896C31.8696 31.7004 31.6996 32.5021 31.375 33.2478C31.0504 33.9936 30.5777 34.6685 29.9843 35.2334C29.391 35.7982 28.6889 36.2416 27.919 36.5378C27.1491 36.8339 26.3268 36.9769 25.5 36.9584C21.539 36.9584 19.125 33.8813 19.125 30.8896Z" fill="#F6B738"/>
</svg>
