<svg width="50" height="50" viewBox="0 0 50 50" fill="none" xmlns="http://www.w3.org/2000/svg">
<g clip-path="url(#clip0_89_586)">
<path d="M26.3896 37.6041C26.8801 38.212 27.5118 38.6953 28.2318 39.0136C28.9518 39.3319 29.7389 39.4759 30.5273 39.4334H33.0111C34.1086 39.4334 35.1612 39.0051 35.9373 38.2426C36.7134 37.4801 37.1494 36.446 37.1494 35.3677C37.1494 34.2895 36.7134 33.2553 35.9373 32.4929C35.1612 31.7304 34.1086 31.3021 33.0111 31.3021H30.3204C29.2228 31.3021 28.1703 30.8737 27.3942 30.1113C26.6181 29.3488 26.1821 28.3147 26.1821 27.2364C26.1821 26.1581 26.6181 25.124 27.3942 24.3615C28.1703 23.5991 29.2228 23.1707 30.3204 23.1707H32.8042C33.5975 23.0829 34.4002 23.2064 35.1282 23.5283C35.8562 23.8501 36.4827 24.3585 36.9419 25M31.5617 20.935V41.2627M15.6467 25.8473C15.0884 25.3332 14.6439 24.7116 14.341 24.0212C14.038 23.3309 13.883 22.5867 13.8857 21.8349V16.5491C13.8827 15.8275 14.0252 15.1125 14.305 14.4453C14.5847 13.7781 14.9962 13.1719 15.5156 12.6617C16.035 12.1515 16.6521 11.7474 17.3313 11.4727C18.0105 11.198 18.7383 11.0582 19.4728 11.0613C20.3028 11.076 21.12 11.2649 21.8695 11.6155C22.6191 11.9661 23.2836 12.4701 23.8185 13.0938M11.4031 16.9556H18.4384M11.4031 21.0207H18.4384" stroke="#F6B738" stroke-width="3" stroke-linecap="round" stroke-linejoin="round"/>
<path d="M31.5031 47.6517C40.6451 47.6517 48.0562 40.3707 48.0562 31.389C48.0562 22.4074 40.6451 15.1263 31.5031 15.1263C22.3611 15.1263 14.95 22.4074 14.95 31.389C14.95 40.3707 22.3611 47.6517 31.5031 47.6517Z" stroke="black" stroke-width="4" stroke-linecap="round" stroke-linejoin="round"/>
<path d="M15.0547 34.5186C12.1406 33.9099 9.44785 32.5399 7.2603 30.553C5.07274 28.5661 3.47152 26.036 2.62553 23.2297C1.77953 20.4233 1.72012 17.4446 2.45356 14.6078C3.18699 11.771 4.68609 9.18123 6.79273 7.11168C8.89938 5.04213 11.5355 3.56949 14.423 2.8491C17.3105 2.12871 20.3423 2.18727 23.1988 3.01861C26.0552 3.84994 28.6304 5.42323 30.6526 7.57253C32.6748 9.72183 34.0692 12.3675 34.6885 15.2304" stroke="black" stroke-width="4" stroke-linecap="round" stroke-linejoin="round"/>
</g>
<defs>
<clipPath id="clip0_89_586">
<rect width="50" height="50" fill="white"/>
</clipPath>
</defs>
</svg>
