<svg width="109" height="52" viewBox="0 0 109 52" fill="none" xmlns="http://www.w3.org/2000/svg">
<path d="M16.4194 23.3508C16.4705 23.2461 16.5524 23.1574 16.6553 23.0952C16.7582 23.033 16.8779 23 17 23C17.1222 23 17.2418 23.033 17.3447 23.0952C17.4476 23.1574 17.5295 23.2461 17.5807 23.3508L21.5417 31.4586C21.5875 31.5523 21.658 31.6334 21.7465 31.6941C21.8349 31.7548 21.9384 31.793 22.0469 31.8052L31.436 32.8558C31.5574 32.8694 31.6721 32.9156 31.7665 32.9889C31.861 33.0622 31.9312 33.1595 31.9688 33.2692C32.0065 33.379 32.0101 33.4967 31.9791 33.6083C31.9482 33.72 31.884 33.8209 31.7941 33.8992L24.853 39.9613C24.7731 40.0315 24.7134 40.1198 24.6799 40.2179C24.6463 40.316 24.6399 40.4205 24.6612 40.5216L26.5029 49.2779C26.5269 49.3911 26.516 49.5085 26.4714 49.616C26.4269 49.7236 26.3507 49.8168 26.2517 49.8847C26.1528 49.9526 26.0353 49.9922 25.9132 49.999C25.7911 50.0057 25.6695 49.9793 25.5629 49.9228L17.3134 45.5621C17.2177 45.5113 17.1098 45.4847 17 45.4847C16.8903 45.4847 16.7824 45.5113 16.6867 45.5621L8.43718 49.9215C8.33062 49.9779 8.2092 50.0043 8.08726 49.9976C7.96532 49.9909 7.84797 49.9513 7.74908 49.8836C7.6502 49.8159 7.57392 49.7229 7.52927 49.6156C7.48462 49.5082 7.47346 49.391 7.49712 49.2779L9.33887 40.5216C9.36043 40.4203 9.35412 40.3155 9.32053 40.2172C9.28694 40.1189 9.2272 40.0304 9.14702 39.9601L2.20465 33.898C2.11521 33.8196 2.05135 33.7188 2.02062 33.6073C1.98989 33.4959 1.99357 33.3785 2.03122 33.2689C2.06886 33.1594 2.13891 33.0622 2.23309 32.9891C2.32727 32.9159 2.44166 32.8696 2.56276 32.8558L11.9531 31.8052C12.0619 31.7932 12.1656 31.7551 12.2543 31.6944C12.343 31.6337 12.4137 31.5525 12.4596 31.4586L16.4194 23.3508Z" stroke="#1F1E1E" stroke-width="4" stroke-linecap="round" stroke-linejoin="round"/>
<path d="M54.2645 15.4548C54.3294 15.319 54.4331 15.204 54.5634 15.1234C54.6938 15.0428 54.8453 15 55 15C55.1548 15 55.3063 15.0428 55.4366 15.1234C55.567 15.204 55.6707 15.319 55.7355 15.4548L60.7529 25.9649C60.8109 26.0864 60.9002 26.1915 61.0122 26.2701C61.1242 26.3488 61.2553 26.3984 61.3928 26.4141L73.2856 27.776C73.4394 27.7937 73.5846 27.8536 73.7043 27.9486C73.8239 28.0435 73.9128 28.1697 73.9605 28.312C74.0083 28.4543 74.0128 28.6068 73.9736 28.7516C73.9343 28.8963 73.853 29.0271 73.7392 29.1286L64.9472 36.9869C64.8459 37.0778 64.7704 37.1923 64.7278 37.3195C64.6853 37.4466 64.6771 37.5822 64.7042 37.7132L67.0371 49.0639C67.0674 49.2107 67.0536 49.3628 66.9972 49.5023C66.9408 49.6417 66.8442 49.7625 66.7188 49.8505C66.5935 49.9385 66.4447 49.9899 66.2901 49.9987C66.1354 50.0074 65.9814 49.9731 65.8463 49.8999L55.3969 44.2472C55.2758 44.1814 55.1391 44.1468 55 44.1468C54.861 44.1468 54.7243 44.1814 54.6031 44.2472L44.1538 49.8983C44.0188 49.9714 43.865 50.0056 43.7105 49.9969C43.5561 49.9882 43.4074 49.9369 43.2822 49.8492C43.1569 49.7614 43.0603 49.6408 43.0037 49.5017C42.9472 49.3625 42.933 49.2106 42.963 49.0639L45.2959 37.7132C45.3232 37.5819 45.3152 37.4461 45.2727 37.3186C45.2301 37.1912 45.1545 37.0764 45.0529 36.9853L36.2592 29.127C36.1459 29.0255 36.065 28.8948 36.0261 28.7503C35.9872 28.6058 35.9919 28.4536 36.0395 28.3115C36.0872 28.1695 36.1759 28.0437 36.2952 27.9488C36.4145 27.8539 36.5594 27.794 36.7128 27.776L48.6073 26.4141C48.7451 26.3986 48.8765 26.3491 48.9888 26.2705C49.1011 26.1918 49.1907 26.0866 49.2488 25.9649L54.2645 15.4548Z" stroke="#F6B738" stroke-width="4" stroke-linecap="round" stroke-linejoin="round"/>
<path d="M91.9387 23.3508C91.9882 23.2461 92.0674 23.1574 92.1668 23.0952C92.2663 23.033 92.3819 23 92.5 23C92.6181 23 92.7337 23.033 92.8332 23.0952C92.9327 23.1574 93.0119 23.2461 93.0613 23.3508L96.8903 31.4586C96.9346 31.5523 97.0028 31.6334 97.0883 31.6941C97.1738 31.7548 97.2738 31.793 97.3787 31.8052L106.455 32.8558C106.572 32.8694 106.683 32.9156 106.774 32.9889C106.866 33.0622 106.933 33.1595 106.97 33.2692C107.006 33.379 107.01 33.4967 106.98 33.6083C106.95 33.72 106.888 33.8209 106.801 33.8992L100.091 39.9613C100.014 40.0315 99.9563 40.1198 99.9239 40.2179C99.8914 40.316 99.8852 40.4205 99.9058 40.5216L101.686 49.2779C101.709 49.3911 101.699 49.5085 101.656 49.616C101.613 49.7236 101.539 49.8168 101.443 49.8847C101.348 49.9526 101.234 49.9922 101.116 49.999C100.998 50.0057 100.881 49.9793 100.777 49.9228L92.8029 45.5621C92.7104 45.5113 92.6061 45.4847 92.5 45.4847C92.3939 45.4847 92.2896 45.5113 92.1971 45.5621L84.2226 49.9215C84.1196 49.9779 84.0022 50.0043 83.8843 49.9976C83.7665 49.9909 83.653 49.9513 83.5574 49.8836C83.4619 49.8159 83.3881 49.7229 83.345 49.6156C83.3018 49.5082 83.291 49.391 83.3139 49.2779L85.0942 40.5216C85.1151 40.4203 85.109 40.3155 85.0765 40.2172C85.044 40.1189 84.9863 40.0304 84.9088 39.9601L78.1978 33.898C78.1114 33.8196 78.0496 33.7188 78.0199 33.6073C77.9902 33.4959 77.9938 33.3785 78.0302 33.2689C78.0666 33.1594 78.1343 33.0622 78.2253 32.9891C78.3164 32.9159 78.4269 32.8696 78.544 32.8558L87.6214 31.8052C87.7265 31.7932 87.8268 31.7551 87.9125 31.6944C87.9982 31.6337 88.0666 31.5525 88.111 31.4586L91.9387 23.3508Z" stroke="#1F1E1E" stroke-width="4" stroke-linecap="round" stroke-linejoin="round"/>
</svg>
